<?xml version="1.0" standalone="no"?>
<!DOCTYPE svg PUBLIC "-//W3C//DTD SVG 20010904//EN"
 "http://www.w3.org/TR/2001/REC-SVG-20010904/DTD/svg10.dtd">
<svg version="1.0" xmlns="http://www.w3.org/2000/svg"
 width="399.000000pt" height="295.000000pt" viewBox="0 0 399.000000 295.000000"
 preserveAspectRatio="xMidYMid meet">

<g transform="translate(0.000000,295.000000) scale(0.100000,-0.100000)"
fill="#FFFFFF" stroke="none">
<path d="M1726 2904 c-441 -68 -846 -301 -1122 -645 -231 -288 -373 -684 -374
-1037 0 -59 -3 -67 -37 -107 -103 -117 -154 -247 -160 -410 -7 -173 32 -301
132 -433 58 -76 80 -92 134 -95 l42 -1 372 372 c205 205 375 372 380 372 4 0
7 -205 7 -455 l0 -456 93 3 92 3 3 828 2 827 320 0 320 0 0 85 0 85 -660 0
c-363 0 -660 2 -660 5 0 10 55 104 108 185 76 117 278 317 402 399 542 358
1223 357 1758 -3 200 -134 389 -344 492 -545 l20 -41 -705 0 -705 0 0 -85 0
-85 320 0 320 0 2 -827 3 -828 93 -3 92 -3 0 513 c0 507 0 513 19 483 10 -16
198 -209 418 -427 395 -395 399 -398 440 -398 76 0 109 24 179 130 68 102 103
224 103 355 0 166 -51 305 -163 439 -40 49 -41 51 -42 132 -2 123 -12 205 -41
334 -71 325 -238 620 -485 855 -274 262 -614 428 -981 480 -128 18 -411 18
-531 -1z m1764 -1329 c20 -74 52 -276 45 -283 -2 -2 -35 3 -74 12 -141 32
-306 14 -436 -47 -77 -37 -191 -126 -205 -160 -5 -13 -9 96 -9 275 l-1 298
323 2 c207 2 324 -1 328 -7 4 -5 17 -46 29 -90z m-2390 -146 l0 -241 -22 16
c-55 38 -128 76 -188 97 -87 30 -267 38 -360 16 -36 -9 -66 -14 -68 -12 -8 7
21 178 45 268 l26 97 283 0 284 0 0 -241z m-296 -349 c36 -11 68 -25 72 -31 4
-7 -118 -136 -282 -300 -322 -322 -299 -308 -330 -202 -20 69 -19 182 1 244
79 236 309 360 539 289z m2625 1 c151 -47 257 -157 296 -308 24 -94 16 -182
-27 -280 l-14 -32 -293 293 -292 292 39 18 c89 40 197 46 291 17z"/>
</g>
</svg>
